<?xml version="1.0" encoding="utf-8"?>
<!-- Generator: Adobe Illustrator 19.2.1, SVG Export Plug-In . SVG Version: 6.00 Build 0)  -->
<svg version="1.1" id="Layer_1" xmlns="http://www.w3.org/2000/svg" xmlns:xlink="http://www.w3.org/1999/xlink" x="0px" y="0px"
	 viewBox="0 0 48 48" style="enable-background:new 0 0 48 48;" xml:space="preserve">
<style type="text/css">
	.st0{fill:#E9E9E9;}
</style>
<path class="st0" d="M24,5.6c-9.9,0-18,8.1-18,18s8,18,18,18c9.9,0,18-8.1,18-18S34,5.6,24,5.6z M24,37.6c-7.7,0-14-6.3-14-14
	s6.3-14,14-14s14,6.3,14,14S31.8,37.6,24,37.6z"/>
<polygon class="st0" points="26,15.6 22,15.6 22,21.6 16,21.6 16,25.6 22,25.6 22,31.6 26,31.6 26,25.6 32,25.6 32,21.6 26,21.6 "/>
</svg>
